<svg xmlns="http://www.w3.org/2000/svg" viewBox="0 0 1040 460">
  <defs>
    <linearGradient id="bulbGrad" x1="0" y1="0" x2="1" y2="1">
      <stop offset="0%" stop-color="#4d6fd6"/>
      <stop offset="55%" stop-color="#2f4fb0"/>
      <stop offset="100%" stop-color="#233c92"/>
    </linearGradient>
    <linearGradient id="bannerGrad" x1="0" y1="0" x2="1" y2="1">
      <stop offset="0%" stop-color="#5b9ee0"/>
      <stop offset="100%" stop-color="#3f7fca"/>
    </linearGradient>
  </defs>

  <!-- banner -->
  <polygon points="308,18 1024,8 1000,392 280,412" fill="url(#bannerGrad)"/>

  <!-- spark rays -->
  <g fill="#ffffff" stroke="#2f4fb0" stroke-width="4" stroke-linejoin="round">
    <polygon points="258,14 292,58 240,42"/>
    <polygon points="292,6 306,56 262,32"/>
    <polygon points="322,16 322,66 280,36"/>
  </g>

  <!-- bulb glass: 4 elongated pointed tufts + rounded dome -->
  <path d="M206,16
           C272,4 334,32 354,86
           C370,128 364,178 344,214
           C332,238 316,258 298,272
           L298,296
           L204,296
           C196,292 190,296 184,290
           L136,326
           C120,336 108,318 118,294
           C126,278 138,264 144,254
           L64,270
           C44,270 36,248 50,226
           C62,208 78,196 86,190
           L22,180
           C2,172 0,146 16,126
           C30,108 48,100 58,98
           L16,58
           C4,42 12,20 34,12
           C64,0 100,2 130,10
           C150,4 180,4 206,16 Z"
        fill="url(#bulbGrad)" stroke="#ffffff" stroke-width="11" stroke-linejoin="round" stroke-miterlimit="1.2"/>

  <!-- glass highlight -->
  <path d="M280,44 C314,42 340,64 344,96 C347,118 338,136 322,148"
        fill="none" stroke="#ffffff" stroke-width="13" stroke-linecap="round" opacity="0.85"/>

  <!-- socket / screw base -->
  <rect x="246" y="296" width="90" height="20" rx="4" fill="#9aa0aa"/>
  <g fill="none" stroke="#7c828c" stroke-width="15" stroke-linecap="round">
    <line x1="252" y1="334" x2="330" y2="334"/>
    <line x1="250" y1="356" x2="328" y2="356"/>
    <line x1="250" y1="378" x2="326" y2="378"/>
  </g>

  <!-- wordmark -->
  <text x="426" y="230" font-family="'Poppins','DM Sans',sans-serif" font-weight="800"
        font-size="148" fill="#ffffff" letter-spacing="1">SONIC</text>
  <text x="434" y="300" font-family="'Poppins','DM Sans',sans-serif" font-weight="500"
        font-size="58" fill="#ffffff" letter-spacing="9">PUBLICIDAD</text>

  <!-- tagline -->
  <text x="1010" y="446" text-anchor="end" font-family="'Poppins','DM Sans',sans-serif" font-weight="600"
        font-size="28" fill="#4d8ad6" letter-spacing="1.5">SPEED &amp; INNOVATION</text>
</svg>
